<svg xmlns="http://www.w3.org/2000/svg" xmlns:xlink="http://www.w3.org/1999/xlink" width="149" zoomAndPan="magnify" viewBox="0 0 111.75 78.749999" height="105" preserveAspectRatio="xMidYMid meet" version="1.0"><defs><clipPath id="442fb5067f"><path d="M 33.820312 34.054688 L 73.804688 34.054688 L 73.804688 78.414062 L 33.820312 78.414062 Z M 33.820312 34.054688 " clip-rule="nonzero"/></clipPath><clipPath id="34c8956396"><path d="M 0.0507812 0 L 106 0 L 106 38 L 0.0507812 38 Z M 0.0507812 0 " clip-rule="nonzero"/></clipPath></defs><g clip-path="url(#442fb5067f)"><path fill="#ffffff" d="M 52.058594 34.644531 C 53.160156 34.019531 54.566406 34.019531 55.644531 34.644531 L 72.125 43.933594 C 73.15625 44.515625 73.84375 45.664062 73.835938 46.851562 L 73.835938 65.476562 C 73.839844 66.714844 73.085938 67.890625 71.996094 68.457031 L 55.605469 77.707031 C 55.035156 78.019531 54.421875 78.167969 53.769531 78.152344 C 53.121094 78.132812 52.515625 77.949219 51.964844 77.605469 L 47.046875 74.761719 C 46.710938 74.5625 46.332031 74.402344 46.097656 74.078125 C 46.304688 73.796875 46.679688 73.761719 46.980469 73.636719 C 47.667969 73.417969 48.292969 73.085938 48.921875 72.734375 C 49.082031 72.621094 49.277344 72.664062 49.425781 72.761719 L 53.621094 75.1875 C 53.921875 75.359375 54.222656 75.132812 54.480469 74.988281 L 70.574219 65.90625 C 70.773438 65.808594 70.882812 65.597656 70.867188 65.382812 L 70.867188 46.933594 C 70.890625 46.6875 70.75 46.460938 70.523438 46.359375 L 54.171875 37.152344 C 53.960938 37.003906 53.746094 37.003906 53.53125 37.152344 L 37.207031 46.378906 C 36.984375 46.476562 36.832031 46.703125 36.859375 46.949219 L 36.859375 65.398438 C 36.839844 65.613281 36.957031 65.820312 37.15625 65.914062 L 41.519531 68.375 C 42.339844 68.820312 43.34375 69.066406 44.246094 68.742188 C 44.652344 68.589844 44.976562 68.335938 45.222656 67.980469 C 45.46875 67.625 45.589844 67.230469 45.585938 66.796875 L 45.589844 48.460938 C 45.574219 48.191406 45.828125 47.964844 46.09375 47.992188 L 48.191406 47.992188 C 48.464844 47.984375 48.683594 48.277344 48.644531 48.550781 L 48.640625 67.003906 C 48.640625 68.644531 47.96875 70.425781 46.453125 71.230469 C 44.585938 72.195312 42.273438 71.992188 40.429688 71.066406 L 35.738281 68.472656 C 34.632812 67.917969 33.894531 66.726562 33.898438 65.492188 L 33.898438 46.863281 C 33.90625 46.246094 34.066406 45.675781 34.382812 45.144531 C 34.699219 44.617188 35.128906 44.207031 35.667969 43.910156 Z M 56.808594 47.558594 C 59.191406 47.417969 61.742188 47.464844 63.886719 48.640625 C 65.546875 49.539062 66.46875 51.425781 66.496094 53.273438 C 66.449219 53.519531 66.191406 53.660156 65.953125 53.640625 C 65.265625 53.640625 64.570312 53.652344 63.878906 53.636719 C 63.585938 53.648438 63.414062 53.378906 63.378906 53.117188 C 63.179688 52.234375 62.699219 51.363281 61.867188 50.9375 C 60.59375 50.296875 59.113281 50.328125 57.722656 50.34375 C 56.707031 50.398438 55.617188 50.484375 54.753906 51.082031 C 54.09375 51.535156 53.894531 52.460938 54.128906 53.179688 C 54.351562 53.710938 54.960938 53.878906 55.460938 54.035156 C 58.332031 54.785156 61.375 54.726562 64.195312 55.703125 C 65.359375 56.105469 66.5 56.886719 66.902344 58.109375 C 67.421875 59.746094 67.195312 61.703125 66.03125 63.015625 C 65.089844 64.097656 63.714844 64.671875 62.339844 65.003906 C 60.515625 65.410156 58.625 65.421875 56.769531 65.238281 C 55.027344 65.039062 53.214844 64.582031 51.871094 63.394531 C 50.71875 62.398438 50.160156 60.839844 50.214844 59.339844 C 50.226562 59.085938 50.480469 58.910156 50.722656 58.929688 L 52.792969 58.929688 C 53.074219 58.910156 53.277344 59.152344 53.289062 59.414062 C 53.417969 60.242188 53.734375 61.136719 54.46875 61.621094 C 55.882812 62.535156 57.660156 62.46875 59.28125 62.496094 C 60.621094 62.4375 62.128906 62.417969 63.226562 61.53125 C 63.804688 61.023438 63.976562 60.179688 63.820312 59.449219 C 63.648438 58.835938 62.992188 58.550781 62.441406 58.347656 C 59.605469 57.449219 56.527344 57.773438 53.71875 56.757812 C 52.578125 56.355469 51.476562 55.59375 51.039062 54.421875 C 50.429688 52.769531 50.710938 50.714844 51.996094 49.445312 C 53.238281 48.183594 55.058594 47.699219 56.785156 47.523438 Z M 56.808594 47.558594 " fill-opacity="1" fill-rule="nonzero"/></g><g clip-path="url(#34c8956396)"><path fill="#ffffff" d="M 71.558594 0 C 71.457031 0 71.363281 0.0273438 71.277344 0.0742188 C 71.089844 0.183594 70.996094 0.347656 70.996094 0.5625 L 70.996094 14.941406 C 70.996094 15.082031 70.929688 15.210938 70.804688 15.28125 C 70.675781 15.355469 70.542969 15.355469 70.410156 15.28125 L 68.0625 13.925781 C 67.6875 13.710938 67.308594 13.710938 66.933594 13.925781 L 57.558594 19.339844 C 57.207031 19.542969 56.992188 19.929688 56.992188 20.335938 L 56.992188 31.160156 C 56.992188 31.597656 57.179688 31.921875 57.554688 32.140625 L 66.933594 37.550781 C 67.3125 37.769531 67.6875 37.769531 68.0625 37.550781 L 77.441406 32.140625 C 77.816406 31.921875 78.007812 31.597656 78.003906 31.160156 L 78.003906 4.171875 C 78.003906 3.761719 77.78125 3.375 77.421875 3.175781 L 71.839844 0.0546875 C 71.753906 0.0078125 71.65625 -0.00390625 71.558594 0 Z M 11.226562 13.511719 C 11.046875 13.519531 10.878906 13.550781 10.71875 13.644531 L 1.339844 19.058594 C 0.964844 19.273438 0.777344 19.601562 0.777344 20.035156 L 0.796875 34.5625 C 0.796875 34.765625 0.902344 34.953125 1.078125 35.050781 C 1.253906 35.15625 1.46875 35.15625 1.644531 35.050781 L 7.207031 31.855469 C 7.558594 31.648438 7.789062 31.285156 7.789062 30.878906 L 7.789062 24.09375 C 7.789062 23.691406 8 23.320312 8.351562 23.117188 L 10.722656 21.746094 C 10.894531 21.644531 11.082031 21.59375 11.285156 21.59375 C 11.484375 21.59375 11.675781 21.644531 11.847656 21.746094 L 14.214844 23.117188 C 14.566406 23.316406 14.777344 23.6875 14.777344 24.09375 L 14.777344 30.878906 C 14.777344 31.28125 15.015625 31.648438 15.363281 31.855469 L 20.925781 35.050781 C 21.101562 35.15625 21.316406 35.15625 21.488281 35.050781 C 21.660156 34.953125 21.769531 34.765625 21.769531 34.5625 L 21.789062 20.035156 C 21.792969 19.597656 21.605469 19.273438 21.226562 19.058594 L 11.847656 13.644531 C 11.6875 13.554688 11.519531 13.523438 11.339844 13.515625 L 11.226562 13.515625 Z M 95.5 13.644531 C 95.300781 13.644531 95.113281 13.695312 94.9375 13.796875 L 85.558594 19.207031 C 85.207031 19.410156 84.996094 19.78125 84.996094 20.183594 L 84.996094 31.011719 C 84.996094 31.417969 85.222656 31.785156 85.578125 31.988281 L 94.878906 37.289062 C 95.222656 37.488281 95.644531 37.5 95.988281 37.308594 L 101.628906 34.171875 C 101.808594 34.070312 101.925781 33.886719 101.929688 33.683594 C 101.929688 33.476562 101.824219 33.292969 101.644531 33.195312 L 92.210938 27.78125 C 92.035156 27.679688 91.910156 27.476562 91.910156 27.273438 L 91.910156 23.886719 C 91.910156 23.683594 92.035156 23.5 92.210938 23.398438 L 95.144531 21.707031 C 95.316406 21.605469 95.53125 21.605469 95.707031 21.707031 L 98.644531 23.398438 C 98.835938 23.507812 98.929688 23.671875 98.925781 23.886719 L 98.925781 26.554688 C 98.925781 26.773438 99.019531 26.9375 99.210938 27.042969 C 99.386719 27.144531 99.597656 27.148438 99.773438 27.042969 L 105.390625 23.773438 C 105.742188 23.570312 105.957031 23.199219 105.957031 22.796875 L 105.957031 20.183594 C 105.957031 19.75 105.769531 19.425781 105.394531 19.207031 L 96.070312 13.796875 C 95.894531 13.695312 95.707031 13.644531 95.507812 13.644531 Z M 67.460938 21.726562 C 67.511719 21.726562 67.5625 21.738281 67.609375 21.765625 L 70.824219 23.625 C 70.910156 23.675781 70.972656 23.769531 70.972656 23.871094 L 70.972656 27.589844 C 70.972656 27.691406 70.910156 27.785156 70.824219 27.835938 L 67.609375 29.695312 C 67.523438 29.746094 67.414062 29.746094 67.328125 29.695312 L 64.113281 27.835938 C 64.027344 27.785156 63.964844 27.691406 63.964844 27.589844 L 63.964844 23.871094 C 63.964844 23.769531 64.027344 23.675781 64.113281 23.625 L 67.328125 21.765625 C 67.371094 21.742188 67.410156 21.726562 67.460938 21.726562 Z M 67.460938 21.726562 " fill-opacity="1" fill-rule="nonzero"/></g><path fill="#ffffff" d="M 39.398438 13.589844 C 39.199219 13.589844 39.011719 13.636719 38.835938 13.738281 L 29.457031 19.132812 C 29.105469 19.335938 28.894531 19.726562 28.894531 20.128906 L 28.894531 30.953125 C 28.890625 31.390625 29.078125 31.714844 29.457031 31.933594 L 38.835938 37.34375 C 39.210938 37.5625 39.585938 37.5625 39.964844 37.34375 L 49.339844 31.933594 C 49.71875 31.714844 49.90625 31.390625 49.90625 30.953125 L 49.90625 20.128906 C 49.90625 19.726562 49.691406 19.335938 49.339844 19.132812 L 39.960938 13.738281 C 39.789062 13.636719 39.601562 13.589844 39.398438 13.589844 Z M 95.484375 23.25 C 95.445312 23.25 95.402344 23.25 95.371094 23.265625 L 93.566406 24.320312 C 93.492188 24.359375 93.453125 24.421875 93.453125 24.507812 L 93.453125 26.574219 C 93.453125 26.652344 93.5 26.722656 93.566406 26.761719 L 95.371094 27.796875 C 95.4375 27.839844 95.507812 27.839844 95.578125 27.796875 L 97.382812 26.761719 C 97.449219 26.726562 97.492188 26.652344 97.492188 26.574219 L 97.492188 24.507812 C 97.492188 24.429688 97.449219 24.359375 97.382812 24.320312 L 95.578125 23.265625 C 95.542969 23.246094 95.519531 23.25 95.484375 23.25 Z M 95.484375 23.25 " fill-opacity="1" fill-rule="nonzero"/></svg>